<svg xmlns="http://www.w3.org/2000/svg" viewBox="0 0 512 512">
  <defs>
    <linearGradient id="bg" x1="0%" y1="0%" x2="100%" y2="100%">
      <stop offset="0%" style="stop-color:#7f13ec"/>
      <stop offset="100%" style="stop-color:#3b82f6"/>
    </linearGradient>
  </defs>
  <rect width="512" height="512" rx="96" fill="url(#bg)"/>
  <!-- Column 1 -->
  <rect x="80" y="120" width="100" height="280" rx="16" fill="rgba(255,255,255,0.15)"/>
  <rect x="92" y="148" width="76" height="48" rx="10" fill="rgba(255,255,255,0.9)"/>
  <rect x="92" y="208" width="76" height="36" rx="10" fill="rgba(255,255,255,0.6)"/>
  <rect x="92" y="256" width="76" height="56" rx="10" fill="rgba(255,255,255,0.4)"/>
  <!-- Column 2 -->
  <rect x="206" y="120" width="100" height="280" rx="16" fill="rgba(255,255,255,0.15)"/>
  <rect x="218" y="148" width="76" height="36" rx="10" fill="rgba(255,255,255,0.9)"/>
  <rect x="218" y="196" width="76" height="56" rx="10" fill="rgba(255,255,255,0.6)"/>
  <!-- Column 3 -->
  <rect x="332" y="120" width="100" height="280" rx="16" fill="rgba(255,255,255,0.15)"/>
  <rect x="344" y="148" width="76" height="56" rx="10" fill="rgba(255,255,255,0.9)"/>
  <rect x="344" y="216" width="76" height="36" rx="10" fill="rgba(255,255,255,0.6)"/>
  <rect x="344" y="264" width="76" height="48" rx="10" fill="rgba(255,255,255,0.4)"/>
</svg>
